<svg width="24" height="18" viewBox="0 0 24 18" fill="none" xmlns="http://www.w3.org/2000/svg">
<rect x="0.5" y="1" width="23" height="16" rx="3.5" fill="white"/>
<rect x="0.5" y="1" width="23" height="16" rx="3.5" stroke="#F5F5F5"/>
<path fill-rule="evenodd" clip-rule="evenodd" d="M7.58836 11.7329H6.13443L5.04415 7.43625C4.9924 7.23861 4.88253 7.06388 4.7209 6.98152C4.31754 6.77457 3.87306 6.60986 3.38818 6.52679V6.36137H5.73036C6.05361 6.36137 6.29605 6.60986 6.33646 6.89845L6.90215 9.99778L8.35538 6.36137H9.76891L7.58836 11.7329ZM10.577 11.7329H9.20393L10.3346 6.36137H11.7077L10.577 11.7329ZM13.4842 7.84945C13.5246 7.56014 13.7671 7.39472 14.0499 7.39472C14.4944 7.35319 14.9785 7.43626 15.3826 7.6425L15.6251 6.48598C15.221 6.32056 14.7765 6.23749 14.3732 6.23749C13.0404 6.23749 12.0707 6.98153 12.0707 8.01416C12.0707 8.79973 12.7576 9.21221 13.2425 9.4607C13.7671 9.70847 13.9691 9.87389 13.9287 10.1217C13.9287 10.4933 13.5246 10.6588 13.1213 10.6588C12.6364 10.6588 12.1515 10.5349 11.7077 10.3279L11.4653 11.4851C11.9502 11.6914 12.4747 11.7745 12.9596 11.7745C14.454 11.8153 15.3826 11.0719 15.3826 9.95625C15.3826 8.55124 13.4842 8.46889 13.4842 7.84945V7.84945ZM20.1882 11.7329L19.0979 6.36137H17.9268C17.6844 6.36137 17.4419 6.52679 17.3611 6.77457L15.3422 11.7329H16.7557L17.0379 10.9481H18.7747L18.9363 11.7329H20.1882ZM18.1289 7.80792L18.5322 9.83236H17.4015L18.1289 7.80792Z" fill="#172B85"/>
</svg>
